<svg version="1.1" id="Layer_1" xmlns="http://www.w3.org/2000/svg" xmlns:xlink="http://www.w3.org/1999/xlink" x="0px" y="0px"
	 width="100%" viewBox="0 0 640 640" enable-background="new 0 0 640 640" xml:space="preserve">
<path fill="#000000" opacity="1.000000" stroke="none" 
	d="
M343.000000,641.000000 
	C330.312439,641.000000 317.624878,641.000000 304.454437,640.531494 
	C303.971558,583.939026 303.971558,527.815002 303.971558,471.506470 
	C318.638031,471.506470 332.796356,471.564117 346.954071,471.494995 
	C380.927521,471.329163 414.466675,468.150208 446.523743,455.910797 
	C486.235748,440.748718 516.855042,415.309601 532.600830,375.054413 
	C548.563782,334.244110 549.406250,292.136047 538.223389,249.992676 
	C529.120422,215.687332 508.505066,189.863861 477.502594,172.428345 
	C446.568878,155.031525 412.705200,147.954529 377.873016,147.251678 
	C318.896667,146.061661 259.884399,146.649307 200.887192,146.509857 
	C199.641190,146.506912 198.394608,146.748764 197.259674,146.865005 
	C197.259674,176.219864 197.259674,205.171478 197.259674,234.391113 
	C199.477997,234.391113 201.454086,234.393723 203.430191,234.390732 
	C252.251144,234.316849 301.074188,233.973068 349.891663,234.351120 
	C362.619415,234.449692 375.570038,235.679276 387.996826,238.350372 
	C412.040894,243.518555 428.825439,257.815430 434.162292,282.510315 
	C436.522736,293.432770 437.356049,305.014587 436.749695,316.181244 
	C435.433716,340.417297 424.364075,359.290375 402.425751,370.978577 
	C388.206909,378.554077 372.805054,382.128387 356.931152,382.831604 
	C337.980682,383.671082 318.981323,383.523926 300.002472,383.581482 
	C267.169861,383.681061 234.336746,383.606506 201.503830,383.617889 
	C200.085373,383.618378 198.666962,383.747192 196.947754,383.830872 
	C196.947754,461.319397 196.947754,538.398621 196.947754,615.829834 
	C195.794052,615.413208 195.025940,615.184204 194.296936,614.865601 
	C159.665939,599.733093 128.383301,579.420532 101.112183,553.267090 
	C46.446648,500.842010 13.782154,437.097870 3.800272,361.880310 
	C2.963393,355.574066 1.937876,349.292847 1.000000,343.000000 
	C1.000000,325.979095 1.000000,308.958221 1.390203,291.327087 
	C4.405609,274.656403 5.880734,258.305908 9.845952,242.583405 
	C32.577122,152.451981 85.535347,85.318199 166.426834,40.137745 
	C200.924744,20.869572 238.058777,9.111355 277.257355,3.924194 
	C283.524170,3.094905 289.753387,1.981863 296.000000,0.999999 
	C311.687561,1.000000 327.375122,1.000000 343.689758,1.402419 
	C366.955902,3.115083 389.104431,7.286882 410.861450,13.527846 
	C532.092285,48.302711 622.307922,151.173752 638.286438,274.681244 
	C639.035889,280.474213 640.088562,286.227966 641.000000,292.000000 
	C641.000000,308.354218 641.000000,324.708466 640.627625,341.737061 
	C637.571289,379.534729 629.716614,415.522766 613.928772,449.275848 
	C563.553589,556.974182 479.624359,620.265259 361.810883,638.127502 
	C355.539581,639.078308 349.270264,640.042175 343.000000,641.000000 
z"/>
<path fill="#FEFEFE" opacity="1.000000" stroke="none" 
	d="
M1.000000,343.468658 
	C1.937876,349.292847 2.963393,355.574066 3.800272,361.880310 
	C13.782154,437.097870 46.446648,500.842010 101.112183,553.267090 
	C128.383301,579.420532 159.665939,599.733093 194.296936,614.865601 
	C195.025940,615.184204 195.794052,615.413208 196.947754,615.829834 
	C196.947754,538.398621 196.947754,461.319397 196.947754,383.830872 
	C198.666962,383.747192 200.085373,383.618378 201.503830,383.617889 
	C234.336746,383.606506 267.169861,383.681061 300.002472,383.581482 
	C318.981323,383.523926 337.980682,383.671082 356.931152,382.831604 
	C372.805054,382.128387 388.206909,378.554077 402.425751,370.978577 
	C424.364075,359.290375 435.433716,340.417297 436.749695,316.181244 
	C437.356049,305.014587 436.522736,293.432770 434.162292,282.510315 
	C428.825439,257.815430 412.040894,243.518555 387.996826,238.350372 
	C375.570038,235.679276 362.619415,234.449692 349.891663,234.351120 
	C301.074188,233.973068 252.251144,234.316849 203.430191,234.390732 
	C201.454086,234.393723 199.477997,234.391113 197.259674,234.391113 
	C197.259674,205.171478 197.259674,176.219864 197.259674,146.865005 
	C198.394608,146.748764 199.641190,146.506912 200.887192,146.509857 
	C259.884399,146.649307 318.896667,146.061661 377.873016,147.251678 
	C412.705200,147.954529 446.568878,155.031525 477.502594,172.428345 
	C508.505066,189.863861 529.120422,215.687332 538.223389,249.992676 
	C549.406250,292.136047 548.563782,334.244110 532.600830,375.054413 
	C516.855042,415.309601 486.235748,440.748718 446.523743,455.910797 
	C414.466675,468.150208 380.927521,471.329163 346.954071,471.494995 
	C332.796356,471.564117 318.638031,471.506470 303.971558,471.506470 
	C303.971558,527.815002 303.971558,583.939026 303.985779,640.531494 
	C203.073547,641.000000 102.147079,641.000000 1.000000,641.000000 
	C1.000000,541.979187 1.000000,442.958252 1.000000,343.468658 
z"/>
<path fill="#FEFEFE" opacity="1.000000" stroke="none" 
	d="
M343.468658,641.000000 
	C349.270264,640.042175 355.539581,639.078308 361.810883,638.127502 
	C479.624359,620.265259 563.553589,556.974182 613.928772,449.275848 
	C629.716614,415.522766 637.571289,379.534729 640.627625,342.205688 
	C641.000000,441.593597 641.000000,541.187195 641.000000,641.000000 
	C541.979187,641.000000 442.958252,641.000000 343.468658,641.000000 
z"/>
<path fill="#FEFEFE" opacity="1.000000" stroke="none" 
	d="
M641.000000,291.531342 
	C640.088562,286.227966 639.035889,280.474213 638.286438,274.681244 
	C622.307922,151.173752 532.092285,48.302711 410.861450,13.527846 
	C389.104431,7.286882 366.955902,3.115083 344.158447,1.402419 
	C442.926300,1.000000 541.852600,1.000000 641.000000,1.000000 
	C641.000000,97.687447 641.000000,194.375061 641.000000,291.531342 
z"/>
<path fill="#FEFEFE" opacity="1.000000" stroke="none" 
	d="
M295.531342,0.999999 
	C289.753387,1.981863 283.524170,3.094905 277.257355,3.924194 
	C238.058777,9.111355 200.924744,20.869572 166.426834,40.137745 
	C85.535347,85.318199 32.577122,152.451981 9.845952,242.583405 
	C5.880734,258.305908 4.405609,274.656403 1.390203,290.858429 
	C1.000000,194.405655 1.000000,97.811302 1.000000,1.000000 
	C99.020790,1.000000 197.041733,1.000000 295.531342,0.999999 
z"/>
</svg>