<svg version="1.1" id="Layer_1" xmlns="http://www.w3.org/2000/svg" xmlns:xlink="http://www.w3.org/1999/xlink" x="0px" y="0px"
	 width="100%" viewBox="0 0 640 640" enable-background="new 0 0 640 640" xml:space="preserve">
<path fill="#FFFFFF" opacity="1.000000" stroke="none" 
	d="
M290.000000,1.000006 
	C310.354218,1.000000 330.708466,1.000000 351.273499,1.374734 
	C352.710724,2.136581 353.912659,2.735322 355.167023,2.880202 
	C399.256073,7.972470 440.902649,20.688431 479.382721,43.032585 
	C543.097656,80.029831 589.249878,132.520966 617.417786,200.642685 
	C628.847351,228.284195 635.963440,257.074127 639.130127,286.836609 
	C639.248108,287.944824 640.354370,288.947906 641.000000,290.000000 
	C641.000000,310.354218 641.000000,330.708466 640.629211,351.255066 
	C639.861877,352.659119 639.235229,353.846130 639.102234,355.086090 
	C634.875671,394.488098 623.845032,431.874359 605.608276,467.055084 
	C573.944275,528.138489 527.313660,574.301819 466.322723,606.015381 
	C431.584015,624.078491 394.538910,634.457642 355.766510,639.080383 
	C354.453400,639.236877 353.252960,640.338745 352.000000,641.000000 
	C336.312439,641.000000 320.624878,641.000000 304.454437,640.531494 
	C303.971558,583.945068 303.971558,527.827026 303.971558,471.506500 
	C318.622498,471.506500 332.775696,471.564575 346.928253,471.494934 
	C380.896820,471.327789 414.430756,468.154297 446.487701,455.923279 
	C486.200012,440.771484 516.825256,415.344116 532.582642,375.104034 
	C548.558289,334.306519 549.411377,292.198639 538.243713,250.058273 
	C529.154358,215.760010 508.570709,189.917816 477.569794,172.473740 
	C446.489014,154.984741 412.471893,147.927856 377.467438,147.237518 
	C318.663940,146.077835 259.826263,146.647858 201.002945,146.507034 
	C199.731674,146.503998 198.459915,146.704453 197.226227,146.806839 
	C197.226227,176.108170 197.226227,205.061356 197.226227,234.391068 
	C199.388947,234.391068 201.345795,234.393646 203.302628,234.390686 
	C252.117599,234.316788 300.934601,233.974594 349.746124,234.349976 
	C362.472839,234.447830 375.415802,235.681717 387.850067,238.321884 
	C412.133667,243.478088 428.954865,257.957367 434.266266,282.833496 
	C436.633240,293.919250 437.375641,305.686310 436.698853,317.015320 
	C435.435974,338.154968 426.449493,355.675629 408.135590,367.581055 
	C392.612457,377.672211 375.185333,381.885071 357.105896,382.802185 
	C338.001648,383.771271 318.829620,383.521851 299.686493,383.581177 
	C267.024567,383.682434 234.362106,383.609100 201.699860,383.609100 
	C200.258286,383.609100 198.816711,383.609100 196.866669,383.609100 
	C196.866669,461.231384 196.866669,538.390442 196.866669,615.883362 
	C175.999176,607.173645 156.896484,596.501526 138.866623,583.934326 
	C85.937271,547.041626 47.559853,498.542084 23.514208,438.703888 
	C12.724219,411.852722 6.007309,383.978119 2.874298,355.217438 
	C2.751510,354.090271 1.647042,353.070038 0.999996,352.000000 
	C1.000000,331.645782 1.000000,311.291534 1.370822,290.744873 
	C2.571601,285.372833 3.427237,280.197205 4.227592,275.013000 
	C13.576239,214.458267 37.613834,160.507126 77.327278,113.778580 
	C111.206726,73.914574 152.535446,44.098080 200.969208,24.329632 
	C228.496078,13.094420 257.198608,6.244706 286.736633,2.854177 
	C287.880310,2.722901 288.914703,1.639665 290.000000,1.000006 
z"/>
<path fill="#010101" opacity="1.000000" stroke="none" 
	d="
M0.999996,352.468658 
	C1.647042,353.070038 2.751510,354.090271 2.874298,355.217438 
	C6.007309,383.978119 12.724219,411.852722 23.514208,438.703888 
	C47.559853,498.542084 85.937271,547.041626 138.866623,583.934326 
	C156.896484,596.501526 175.999176,607.173645 196.866669,615.883362 
	C196.866669,538.390442 196.866669,461.231384 196.866669,383.609100 
	C198.816711,383.609100 200.258286,383.609100 201.699860,383.609100 
	C234.362106,383.609100 267.024567,383.682434 299.686493,383.581177 
	C318.829620,383.521851 338.001648,383.771271 357.105896,382.802185 
	C375.185333,381.885071 392.612457,377.672211 408.135590,367.581055 
	C426.449493,355.675629 435.435974,338.154968 436.698853,317.015320 
	C437.375641,305.686310 436.633240,293.919250 434.266266,282.833496 
	C428.954865,257.957367 412.133667,243.478088 387.850067,238.321884 
	C375.415802,235.681717 362.472839,234.447830 349.746124,234.349976 
	C300.934601,233.974594 252.117599,234.316788 203.302628,234.390686 
	C201.345795,234.393646 199.388947,234.391068 197.226227,234.391068 
	C197.226227,205.061356 197.226227,176.108170 197.226227,146.806839 
	C198.459915,146.704453 199.731674,146.503998 201.002945,146.507034 
	C259.826263,146.647858 318.663940,146.077835 377.467438,147.237518 
	C412.471893,147.927856 446.489014,154.984741 477.569794,172.473740 
	C508.570709,189.917816 529.154358,215.760010 538.243713,250.058273 
	C549.411377,292.198639 548.558289,334.306519 532.582642,375.104034 
	C516.825256,415.344116 486.200012,440.771484 446.487701,455.923279 
	C414.430756,468.154297 380.896820,471.327789 346.928253,471.494934 
	C332.775696,471.564575 318.622498,471.506500 303.971558,471.506500 
	C303.971558,527.827026 303.971558,583.945068 303.985779,640.531494 
	C203.074661,641.000000 102.149323,641.000000 1.000000,641.000000 
	C1.000000,544.979248 1.000000,448.958282 0.999996,352.468658 
z"/>
<path fill="#010101" opacity="1.000000" stroke="none" 
	d="
M352.468658,641.000000 
	C353.252960,640.338745 354.453400,639.236877 355.766510,639.080383 
	C394.538910,634.457642 431.584015,624.078491 466.322723,606.015381 
	C527.313660,574.301819 573.944275,528.138489 605.608276,467.055084 
	C623.845032,431.874359 634.875671,394.488098 639.102234,355.086090 
	C639.235229,353.846130 639.861877,352.659119 640.629211,351.723724 
	C641.000000,448.260406 641.000000,544.520813 641.000000,641.000000 
	C544.979187,641.000000 448.958252,641.000000 352.468658,641.000000 
z"/>
<path fill="#010101" opacity="1.000000" stroke="none" 
	d="
M641.000000,289.531342 
	C640.354370,288.947906 639.248108,287.944824 639.130127,286.836609 
	C635.963440,257.074127 628.847351,228.284195 617.417786,200.642685 
	C589.249878,132.520966 543.097656,80.029831 479.382721,43.032585 
	C440.902649,20.688431 399.256073,7.972470 355.167023,2.880202 
	C353.912659,2.735322 352.710724,2.136581 351.742188,1.374734 
	C448.260376,1.000000 544.520752,1.000000 641.000000,1.000000 
	C641.000000,97.020782 641.000000,193.041733 641.000000,289.531342 
z"/>
<path fill="#010101" opacity="1.000000" stroke="none" 
	d="
M289.531342,1.000006 
	C288.914703,1.639665 287.880310,2.722901 286.736633,2.854177 
	C257.198608,6.244706 228.496078,13.094420 200.969208,24.329632 
	C152.535446,44.098080 111.206726,73.914574 77.327278,113.778580 
	C37.613834,160.507126 13.576239,214.458267 4.227592,275.013000 
	C3.427237,280.197205 2.571601,285.372833 1.370822,290.276245 
	C1.000000,193.739609 1.000000,97.479210 1.000000,1.000000 
	C97.020782,1.000000 193.041733,1.000000 289.531342,1.000006 
z"/>
</svg>