<svg version="1.1" id="Layer_1" xmlns="http://www.w3.org/2000/svg" xmlns:xlink="http://www.w3.org/1999/xlink" x="0px" y="0px"
	 width="640" height="640" viewBox="0 0 640 640" enable-background="new 0 0 640 640" xml:space="preserve">
<path fill="#FFFFFF" opacity="1.000000" stroke="none" 
	d="
M377.000000,641.000000 
	C251.333374,641.000000 126.166756,641.000000 1.000101,641.000000 
	C1.000067,427.666779 1.000067,214.333572 1.000034,1.000273 
	C214.333130,1.000182 427.666260,1.000182 640.999512,1.000091 
	C640.999695,214.333069 640.999695,427.666138 640.999878,640.999634 
	C553.166687,641.000000 465.333344,641.000000 377.000000,641.000000 
M610.989258,569.479980 
	C610.989258,402.163116 610.993591,234.846252 610.983643,67.529381 
	C610.982422,47.624760 598.751770,35.020119 579.250732,35.016872 
	C407.099518,34.988201 234.948318,34.988960 62.797119,35.015915 
	C43.449940,35.018944 31.016869,47.573639 31.015381,66.966965 
	C31.002390,236.285110 31.002905,405.603241 31.014524,574.921387 
	C31.015875,594.598328 43.424973,606.973206 63.200813,606.989136 
	C106.363571,607.023926 149.526382,607.002197 192.689178,606.990173 
	C194.111282,606.989807 195.533340,606.845215 197.193756,606.754883 
	C197.193756,532.181519 197.193756,458.063477 197.193756,383.609131 
	C199.255539,383.609131 201.052750,383.606567 202.849960,383.609528 
	C247.500870,383.683411 292.151764,383.806244 336.802673,383.808777 
	C355.015442,383.809814 373.063965,382.365326 390.416504,376.207672 
	C412.661804,368.313751 428.497131,354.121338 434.490570,330.597656 
	C438.597961,314.476532 438.242584,298.249725 434.276917,282.158661 
	C430.076294,265.114380 420.510468,252.043747 404.570709,244.156219 
	C393.556793,238.706146 381.751801,235.484787 369.547791,235.134064 
	C346.416870,234.469360 323.263550,234.486923 300.118927,234.416260 
	C267.122223,234.315506 234.124939,234.390503 201.127899,234.390427 
	C199.863449,234.390427 198.598999,234.390427 197.180069,234.390427 
	C197.180069,204.914169 197.180069,175.963470 197.180069,146.493134 
	C199.093628,146.493134 200.887924,146.493134 202.682220,146.493134 
	C250.344620,146.493118 298.007446,146.378891 345.669159,146.560867 
	C360.482697,146.617416 375.326599,147.010941 390.097839,148.069778 
	C417.156677,150.009384 443.422760,155.710922 468.053314,167.454483 
	C502.027679,183.653061 525.649475,209.237747 536.959045,245.448029 
	C547.054443,277.770813 547.568909,310.747070 541.692932,343.784424 
	C535.213257,380.216187 518.021362,410.602325 488.177765,433.198639 
	C463.467529,451.908112 435.203613,462.429535 404.900940,466.804291 
	C385.190582,469.649872 365.141785,470.394684 345.209991,471.378601 
	C331.624420,472.049225 317.978973,471.506866 304.175598,471.506866 
	C304.175598,516.807312 304.175598,561.718811 304.175598,606.999939 
	C305.679291,606.999939 306.972382,606.999939 308.265472,606.999939 
	C398.424042,606.999939 488.582642,607.000427 578.741211,606.995178 
	C580.240234,606.995117 581.743347,606.982666 583.237610,606.877319 
	C591.643250,606.284973 598.468384,602.684692 603.939209,596.261047 
	C610.352600,588.730652 611.464722,579.838257 610.989258,569.479980 
z"/>
<path fill="#000000" opacity="1.000000" stroke="none" 
	d="
M610.989258,569.975098 
	C611.464722,579.838257 610.352600,588.730652 603.939209,596.261047 
	C598.468384,602.684692 591.643250,606.284973 583.237610,606.877319 
	C581.743347,606.982666 580.240234,606.995117 578.741211,606.995178 
	C488.582642,607.000427 398.424042,606.999939 308.265472,606.999939 
	C306.972382,606.999939 305.679291,606.999939 304.175598,606.999939 
	C304.175598,561.718811 304.175598,516.807312 304.175598,471.506866 
	C317.978973,471.506866 331.624420,472.049225 345.209991,471.378601 
	C365.141785,470.394684 385.190582,469.649872 404.900940,466.804291 
	C435.203613,462.429535 463.467529,451.908112 488.177765,433.198639 
	C518.021362,410.602325 535.213257,380.216187 541.692932,343.784424 
	C547.568909,310.747070 547.054443,277.770813 536.959045,245.448029 
	C525.649475,209.237747 502.027679,183.653061 468.053314,167.454483 
	C443.422760,155.710922 417.156677,150.009384 390.097839,148.069778 
	C375.326599,147.010941 360.482697,146.617416 345.669159,146.560867 
	C298.007446,146.378891 250.344620,146.493118 202.682220,146.493134 
	C200.887924,146.493134 199.093628,146.493134 197.180069,146.493134 
	C197.180069,175.963470 197.180069,204.914169 197.180069,234.390427 
	C198.598999,234.390427 199.863449,234.390427 201.127899,234.390427 
	C234.124939,234.390503 267.122223,234.315506 300.118927,234.416260 
	C323.263550,234.486923 346.416870,234.469360 369.547791,235.134064 
	C381.751801,235.484787 393.556793,238.706146 404.570709,244.156219 
	C420.510468,252.043747 430.076294,265.114380 434.276917,282.158661 
	C438.242584,298.249725 438.597961,314.476532 434.490570,330.597656 
	C428.497131,354.121338 412.661804,368.313751 390.416504,376.207672 
	C373.063965,382.365326 355.015442,383.809814 336.802673,383.808777 
	C292.151764,383.806244 247.500870,383.683411 202.849960,383.609528 
	C201.052750,383.606567 199.255539,383.609131 197.193756,383.609131 
	C197.193756,458.063477 197.193756,532.181519 197.193756,606.754883 
	C195.533340,606.845215 194.111282,606.989807 192.689178,606.990173 
	C149.526382,607.002197 106.363571,607.023926 63.200813,606.989136 
	C43.424973,606.973206 31.015875,594.598328 31.014524,574.921387 
	C31.002905,405.603241 31.002390,236.285110 31.015381,66.966965 
	C31.016869,47.573639 43.449940,35.018944 62.797119,35.015915 
	C234.948318,34.988960 407.099518,34.988201 579.250732,35.016872 
	C598.751770,35.020119 610.982422,47.624760 610.983643,67.529381 
	C610.993591,234.846252 610.989258,402.163116 610.989258,569.975098 
z"/>
</svg>