<svg version="1.1" id="Layer_1" xmlns="http://www.w3.org/2000/svg" xmlns:xlink="http://www.w3.org/1999/xlink" x="0px" y="0px"
	 width="640" height="640" viewBox="0 0 640 640" enable-background="new 0 0 640 640" xml:space="preserve">
<path fill="#000000" opacity="1.000000" stroke="none" 
	d="
M377.000000,641.000000 
	C251.333374,641.000000 126.166756,641.000000 1.000101,641.000000 
	C1.000067,427.666779 1.000067,214.333572 1.000034,1.000273 
	C214.333130,1.000182 427.666260,1.000182 640.999512,1.000091 
	C640.999695,214.333069 640.999695,427.666138 640.999878,640.999634 
	C553.166687,641.000000 465.333344,641.000000 377.000000,641.000000 
M610.989258,569.479980 
	C610.989258,402.162598 610.993530,234.845215 610.983582,67.527840 
	C610.982361,47.624138 598.750977,35.020088 579.249268,35.016842 
	C407.098114,34.988209 234.946991,34.988945 62.795856,35.015930 
	C43.449314,35.018963 31.016859,47.574188 31.015373,66.968208 
	C31.002403,236.286255 31.002897,405.604309 31.014536,574.922363 
	C31.015888,594.598694 43.425529,606.973206 63.201794,606.989136 
	C106.364532,607.023804 149.527328,607.002136 192.690094,606.990173 
	C194.112122,606.989746 195.534103,606.845093 197.194275,606.754761 
	C197.194275,532.180847 197.194275,458.062805 197.194275,383.609100 
	C199.256119,383.609100 201.053452,383.606567 202.850784,383.609528 
	C247.501663,383.683411 292.152527,383.806305 336.803406,383.808777 
	C355.016174,383.809814 373.064636,382.365143 390.417206,376.207489 
	C412.662628,368.313599 428.497223,354.120422 434.490723,330.597229 
	C438.598175,314.476166 438.242462,298.249329 434.276764,282.158264 
	C430.076111,265.113831 420.509766,252.043655 404.570190,244.156067 
	C393.556305,238.705902 381.751251,235.484695 369.547241,235.134003 
	C346.416321,234.469360 323.263031,234.486938 300.118408,234.416260 
	C267.121735,234.315521 234.124466,234.390503 201.127441,234.390427 
	C199.863052,234.390427 198.598648,234.390442 197.179932,234.390442 
	C197.179932,204.913849 197.179932,175.963211 197.179932,146.493164 
	C199.094009,146.493164 200.888321,146.493164 202.682632,146.493164 
	C250.345001,146.493164 298.007812,146.378937 345.669495,146.560898 
	C360.483032,146.617447 375.326904,147.010956 390.098145,148.069809 
	C417.156952,150.009460 443.423065,155.710999 468.053558,167.454590 
	C502.027893,183.653214 525.649597,209.237961 536.959106,245.448242 
	C547.054504,277.771027 547.568970,310.747314 541.692993,343.784607 
	C535.213196,380.216370 518.021179,410.602600 488.177399,433.198822 
	C463.467133,451.908203 435.203247,462.429657 404.900604,466.804382 
	C385.190247,469.649872 365.141479,470.394684 345.209686,471.378632 
	C331.624146,472.049255 317.978760,471.506866 304.175659,471.506866 
	C304.175659,516.807495 304.175659,561.718933 304.175659,606.999939 
	C305.679382,606.999939 306.972504,606.999939 308.265625,606.999939 
	C398.424164,606.999939 488.582672,607.000427 578.741211,606.995178 
	C580.240234,606.995117 581.743347,606.982666 583.237610,606.877319 
	C591.643250,606.284973 598.468445,602.684753 603.939209,596.261047 
	C610.352478,588.730652 611.464783,579.838257 610.989258,569.479980 
z"/>
<path fill="#FFFFFF" opacity="1.000000" stroke="none" 
	d="
M610.989258,569.975098 
	C611.464783,579.838257 610.352478,588.730652 603.939209,596.261047 
	C598.468445,602.684753 591.643250,606.284973 583.237610,606.877319 
	C581.743347,606.982666 580.240234,606.995117 578.741211,606.995178 
	C488.582672,607.000427 398.424164,606.999939 308.265625,606.999939 
	C306.972504,606.999939 305.679382,606.999939 304.175659,606.999939 
	C304.175659,561.718933 304.175659,516.807495 304.175659,471.506866 
	C317.978760,471.506866 331.624146,472.049255 345.209686,471.378632 
	C365.141479,470.394684 385.190247,469.649872 404.900604,466.804382 
	C435.203247,462.429657 463.467133,451.908203 488.177399,433.198822 
	C518.021179,410.602600 535.213196,380.216370 541.692993,343.784607 
	C547.568970,310.747314 547.054504,277.771027 536.959106,245.448242 
	C525.649597,209.237961 502.027893,183.653214 468.053558,167.454590 
	C443.423065,155.710999 417.156952,150.009460 390.098145,148.069809 
	C375.326904,147.010956 360.483032,146.617447 345.669495,146.560898 
	C298.007812,146.378937 250.345001,146.493164 202.682632,146.493164 
	C200.888321,146.493164 199.094009,146.493164 197.179932,146.493164 
	C197.179932,175.963211 197.179932,204.913849 197.179932,234.390442 
	C198.598648,234.390442 199.863052,234.390427 201.127441,234.390427 
	C234.124466,234.390503 267.121735,234.315521 300.118408,234.416260 
	C323.263031,234.486938 346.416321,234.469360 369.547241,235.134003 
	C381.751251,235.484695 393.556305,238.705902 404.570190,244.156067 
	C420.509766,252.043655 430.076111,265.113831 434.276764,282.158264 
	C438.242462,298.249329 438.598175,314.476166 434.490723,330.597229 
	C428.497223,354.120422 412.662628,368.313599 390.417206,376.207489 
	C373.064636,382.365143 355.016174,383.809814 336.803406,383.808777 
	C292.152527,383.806305 247.501663,383.683411 202.850784,383.609528 
	C201.053452,383.606567 199.256119,383.609100 197.194275,383.609100 
	C197.194275,458.062805 197.194275,532.180847 197.194275,606.754761 
	C195.534103,606.845093 194.112122,606.989746 192.690094,606.990173 
	C149.527328,607.002136 106.364532,607.023804 63.201794,606.989136 
	C43.425529,606.973206 31.015888,594.598694 31.014536,574.922363 
	C31.002897,405.604309 31.002403,236.286255 31.015373,66.968208 
	C31.016859,47.574188 43.449314,35.018963 62.795856,35.015930 
	C234.946991,34.988945 407.098114,34.988209 579.249268,35.016842 
	C598.750977,35.020088 610.982361,47.624138 610.983582,67.527840 
	C610.993530,234.845215 610.989258,402.162598 610.989258,569.975098 
z"/>
</svg>